HIERARCHY
ROOT Hips
{
	OFFSET	0.00	0.00	0.00
	CHANNELS 6 Xposition Yposition Zposition Zrotation Xrotation Yrotation
	JOINT Chest
	{
		OFFSET	0.000000	6.275751	0.000000
		CHANNELS 3 Zrotation Xrotation Yrotation
		JOINT Neck
		{
			OFFSET	0.000000	14.296947	0.000000
			CHANNELS 3 Zrotation Xrotation Yrotation
			JOINT Head
			{
				OFFSET	0.000000	2.637461	0.000000
				CHANNELS 3 Zrotation Xrotation Yrotation
				End Site
				{
					OFFSET	0.000000	4.499004	0.000000
				}
			}
		}
		JOINT LeftCollar
		{
			OFFSET	1.120000	11.362855	1.870000
			CHANNELS 3 Zrotation Xrotation Yrotation
			JOINT LeftUpArm
			{
				OFFSET	4.565688	2.019026	-1.821179
				CHANNELS 3 Zrotation Xrotation Yrotation
				JOINT LeftLowArm
				{
					OFFSET	0.219729	-10.348825	-0.061708
					CHANNELS 3 Zrotation Xrotation Yrotation
					JOINT LeftHand
					{
						OFFSET	0.087892	-10.352228	2.178217
						CHANNELS 3 Zrotation Xrotation Yrotation
						End Site
						{
							OFFSET	0.131837	-6.692379	1.711456
						}
					}
				}
			}
		}
		JOINT RightCollar
		{
			OFFSET	-1.120000	11.362855	1.870000
			CHANNELS 3 Zrotation Xrotation Yrotation
			JOINT RightUpArm
			{
				OFFSET	-4.708080	2.034554	-1.821179
				CHANNELS 3 Zrotation Xrotation Yrotation
				JOINT RightLowArm
				{
					OFFSET	-0.263676	-10.428555	-0.061708
					CHANNELS 3 Zrotation Xrotation Yrotation
					JOINT RightHand
					{
						OFFSET	0.000000	-10.255345	2.178217
						CHANNELS 3 Zrotation Xrotation Yrotation
						End Site
						{
							OFFSET	-0.140882	-6.671274	1.711456
						}
					}
				}
			}
		}
	}
	JOINT LeftUpLeg
	{
		OFFSET	3.910000	0.000000	0.000000
		CHANNELS 3 Zrotation Xrotation Yrotation
		JOINT LeftLowLeg
		{
			OFFSET	-0.441177	-17.569450	1.695613
			CHANNELS 3 Zrotation Xrotation Yrotation
			JOINT LeftFoot
			{
				OFFSET	-0.043946	-17.197315	-1.478076
				CHANNELS 3 Zrotation Xrotation Yrotation
				End Site
				{
					OFFSET	0.000000	-3.933155	5.233925
				}
			}
		}
	}
	JOINT RightUpLeg
	{
		OFFSET	-3.910000	0.000000	0.000000
		CHANNELS 3 Zrotation Xrotation Yrotation
		JOINT RightLowLeg
		{
			OFFSET	0.437741	-17.622387	1.695613
			CHANNELS 3 Zrotation Xrotation Yrotation
			JOINT RightFoot
			{
				OFFSET	0.000000	-17.140001	-1.478076
				CHANNELS 3 Zrotation Xrotation Yrotation
				End Site
				{
					OFFSET	0.000000	-4.038528	5.233925
				}
			}
		}
	}
}
MOTION
Frames: 10
Frame Time: 0.04166667
8.548474	34.796510	48.456532	2.856114	-2.131909	101.869034	8.049780	2.314950	-3.459314	-3.893912	6.375538	17.209675	-11.077977	-2.314271	-3.739707	-16.618900	7.214604	3.930238	23.711908	-21.366207	-50.389545	-5.119065	3.088536	4.207845	-7.386486	2.563525	-1.565711	12.501527	17.062767	-4.843412	-28.017292	-21.251507	23.833656	-5.187180	6.300250	1.620639	-4.591065	2.436545	-0.983739	-3.453077	-0.267001	16.598259	-2.905890	9.837800	-7.668351	9.306190	-6.257890	-0.077071	-3.335798	-25.678057	-1.208259	-1.977294	57.993408	-15.994452	-3.036045	16.558973	6.182457	
9.459065	34.805258	48.253548	2.965162	-2.565802	105.300720	8.266051	2.783494	-4.714987	-3.073329	6.242811	16.519178	-10.809289	-2.307183	-3.645380	-15.822967	7.659625	3.986657	23.165243	-25.247801	-55.442387	-4.292906	1.987912	3.941567	-8.484712	2.595808	-1.796933	12.798429	16.348026	-4.956619	-27.565622	-19.506729	20.841381	-5.055387	6.210897	1.586067	-4.132886	2.429009	-0.885715	-2.750160	0.634150	12.645542	-3.033231	10.725201	-7.972381	9.197253	-7.158826	0.070850	-3.156888	-23.949663	-4.810974	-1.136490	48.075119	-18.247280	-13.697968	11.610204	9.295159	
10.412189	34.771722	48.024128	3.019285	-3.015676	108.376808	8.557507	2.759265	-5.624588	-2.390467	6.484472	15.792799	-10.404328	-2.284367	-3.501450	-14.628597	7.276085	3.580124	21.687719	-27.474991	-53.106644	-3.263332	1.829388	2.879881	-3.439842	2.484536	-0.730627	12.471217	14.963964	-4.422388	-26.677656	-16.616365	18.924891	-4.940238	6.140976	1.540038	-3.362860	2.418318	-0.720915	-1.917967	1.285623	8.717327	-3.102483	12.018409	-7.784394	8.113425	-8.610844	0.255422	-2.619652	-21.296892	-5.492347	-0.436672	35.734303	-18.422413	-12.898408	9.173086	8.499496	
11.452519	34.701240	47.757648	3.209941	-3.364348	110.919601	8.788286	3.333180	-6.244791	-1.717435	5.881950	15.233297	-9.956038	-1.879166	-3.277013	-17.453985	11.574588	5.402299	24.410149	-34.665508	-60.588913	-1.347561	-0.114959	2.381462	-8.650795	2.601020	-1.831882	16.265965	18.977171	-6.812433	-29.757454	-20.369759	16.881758	-4.602890	5.999397	1.502141	-3.563605	2.420981	-0.763903	-1.374032	3.029737	8.322304	-3.230803	11.873240	-8.389787	9.589292	-10.044345	0.577644	-1.700913	-16.178600	-6.265525	-0.057411	18.447094	-16.960728	-10.329988	9.671240	7.873366	
12.558520	34.576475	47.438808	3.164877	-3.631168	112.775482	8.719469	2.554425	-6.453524	-1.108043	6.497538	15.016665	-9.598600	-1.472424	-3.088864	-16.151907	10.649889	4.881806	22.564543	-34.632782	-52.087376	-1.043497	-0.295884	1.328475	-21.471201	3.307885	-4.461679	15.563406	17.131561	-5.709474	-28.784693	-16.700611	17.258379	-4.334217	5.866913	1.444890	-3.405044	2.418656	-0.729936	-0.805634	4.544744	6.279531	-3.316483	12.033232	-8.604742	9.662947	-11.928664	0.909028	0.769827	-6.131329	-13.326192	0.833091	-9.165790	-6.850342	-7.052732	15.302231	7.613412	
13.706176	34.396608	47.064606	3.108150	-3.322728	114.067749	7.776220	2.268765	-6.033520	-0.134807	6.750128	14.584568	-9.680206	-1.182095	-3.066489	-15.556719	11.399896	4.975332	22.380356	-35.934273	-52.061108	-0.509928	-2.393263	0.797019	-15.753066	2.919718	-3.307812	15.973895	15.979228	-5.533972	-28.591482	-14.556275	17.201349	-4.026042	5.662426	1.426683	-4.279791	2.431448	-0.917172	-0.754815	6.200099	5.006432	-3.373754	12.516411	-8.671549	9.304776	-13.443380	1.120828	1.331112	-8.699100	-16.584455	1.755397	-9.206501	3.543359	-1.266773	6.567221	5.281304	
14.930648	34.213513	46.641796	3.247069	-2.242984	114.897186	5.753171	2.288922	-5.095785	1.223582	7.196862	14.058208	-9.811477	-1.020990	-3.081221	-14.158580	12.046680	4.431629	22.354933	-35.978569	-53.898857	0.365533	-4.909809	0.213552	-16.447344	2.960734	-3.449799	16.195601	13.516071	-4.810584	-28.085005	-11.082499	18.650797	-3.383980	5.504587	1.313401	-4.632373	2.437172	-0.992553	-1.409259	8.781055	3.688439	-3.264504	12.353955	-8.175310	8.101546	-14.263247	1.073543	0.141968	-9.970269	-14.539094	2.467072	-9.127256	11.459270	7.106829	-0.282179	4.256857	
16.097599	34.002268	46.214981	3.189023	-2.242635	115.901070	7.351845	1.702778	-7.611614	-1.081372	7.360248	16.793549	-9.709653	-1.369657	-3.107864	-11.653707	5.279340	3.796530	17.911673	-28.420267	-50.398891	0.486313	-5.722400	-0.257197	-10.996368	2.685930	-2.323365	11.329843	10.564444	-1.950511	-25.922455	-7.670632	21.051744	-2.479868	5.433825	1.172139	-5.958305	2.463424	-1.275780	-1.232382	10.301086	1.630990	-3.067566	12.868965	-7.100009	7.380746	-15.640967	1.144949	-0.573637	-10.631984	-7.854046	2.723387	-9.079643	14.281921	8.180984	-6.686949	5.067901	
17.272892	33.838366	45.750622	3.196328	-2.222699	116.679115	7.950714	1.729763	-7.985757	-1.583138	7.038531	17.706987	-10.123212	-1.577933	-3.279977	-12.125466	5.064096	4.114626	18.132019	-27.648806	-53.260216	1.349799	-7.017823	-0.871107	-12.527184	2.752406	-2.642138	11.254089	11.218738	-2.000988	-26.990187	-9.084910	21.703571	-1.626767	5.453541	0.996225	-7.226910	2.494625	-1.546170	-1.049918	11.226809	-1.200093	-2.792565	14.350566	-5.574700	5.721297	-16.311115	0.922943	-0.320777	-9.857168	-4.187363	2.473597	-9.129145	11.471254	10.084717	-3.959810	4.596235	
18.552593	33.704502	45.221001	3.735220	-1.860406	117.077324	8.314375	1.844445	-7.742673	-1.915967	7.223393	18.296432	-10.444525	-1.405617	-3.354982	-12.201624	4.649575	3.910166	18.481764	-25.994823	-54.085335	0.563381	-7.245050	-0.192335	-12.844700	2.767239	-2.708021	10.902605	11.267195	-1.759840	-27.442348	-9.495709	22.247301	-1.305962	5.473556	0.933447	-8.135064	2.520646	-1.739315	-0.981129	12.686728	-3.076755	-2.524525	16.205173	-4.241313	3.339072	-15.882143	0.455735	0.826829	-8.432765	-3.713307	2.463679	-9.118166	11.452249	3.253582	3.126929	4.467639	
